<svg width="20" height="14" viewBox="0 0 20 14" fill="none" xmlns="http://www.w3.org/2000/svg">
<path d="M19.71 4.29019L15.71 0.290185C15.6168 0.196947 15.5061 0.122986 15.3843 0.072526C15.2624 0.0220657 15.1319 -0.00390625 15 -0.00390625C14.7337 -0.00390625 14.4783 0.101882 14.29 0.290185C14.1017 0.478489 13.9959 0.733884 13.9959 1.00019C13.9959 1.26649 14.1017 1.52188 14.29 1.71019L16.59 4.00019H5.00002C4.7348 4.00019 4.48045 4.10554 4.29291 4.29308C4.10537 4.48062 4.00002 4.73497 4.00002 5.00019C4.00002 5.2654 4.10537 5.51976 4.29291 5.70729C4.48045 5.89483 4.7348 6.00019 5.00002 6.00019H19C19.1974 5.9992 19.3902 5.9398 19.5539 5.82946C19.7176 5.71913 19.845 5.5628 19.92 5.38019C19.9966 5.19807 20.0175 4.99736 19.9801 4.80337C19.9428 4.60938 19.8488 4.43081 19.71 4.29019ZM15 8.00019H1.00002C0.802592 8.00117 0.609876 8.06057 0.446156 8.17091C0.282435 8.28124 0.155037 8.43757 0.0800174 8.62019C0.00343795 8.8023 -0.0174847 9.00301 0.0198894 9.197C0.0572635 9.39099 0.15126 9.56956 0.290017 9.71019L4.29002 13.7102C4.38298 13.8039 4.49358 13.8783 4.61544 13.9291C4.7373 13.9798 4.86801 14.006 5.00002 14.006C5.13203 14.006 5.26274 13.9798 5.38459 13.9291C5.50645 13.8783 5.61705 13.8039 5.71002 13.7102C5.80375 13.6172 5.87814 13.5066 5.92891 13.3848C5.97968 13.2629 6.00582 13.1322 6.00582 13.0002C6.00582 12.8682 5.97968 12.7375 5.92891 12.6156C5.87814 12.4937 5.80375 12.3831 5.71002 12.2902L3.41002 10.0002H15C15.2652 10.0002 15.5196 9.89483 15.7071 9.70729C15.8947 9.51976 16 9.2654 16 9.00019C16 8.73497 15.8947 8.48062 15.7071 8.29308C15.5196 8.10554 15.2652 8.00019 15 8.00019Z" fill="black"/>
</svg>
