<svg width="72" height="72" viewBox="0 0 72 72" fill="none" xmlns="http://www.w3.org/2000/svg">
<path fill-rule="evenodd" clip-rule="evenodd" d="M44.895 42.7649H47.265L62.235 57.7649L57.765 62.2349L42.765 47.2649V44.8949L41.955 44.0549C38.535 46.9949 34.095 48.7649 29.265 48.7649C18.495 48.7649 9.76501 40.0349 9.76501 29.2649C9.76501 18.4949 18.495 9.76489 29.265 9.76489C40.035 9.76489 48.765 18.4949 48.765 29.2649C48.765 34.0949 46.995 38.5349 44.055 41.9549L44.895 42.7649ZM15.765 29.2649C15.765 36.7349 21.795 42.7649 29.265 42.7649C36.735 42.7649 42.765 36.7349 42.765 29.2649C42.765 21.7949 36.735 15.7649 29.265 15.7649C21.795 15.7649 15.765 21.7949 15.765 29.2649Z" fill="#888888"/>
</svg>
