<svg width="52" height="54" viewBox="0 0 52 54" fill="none" xmlns="http://www.w3.org/2000/svg">
<path fill-rule="evenodd" clip-rule="evenodd" d="M46.0059 27C46.0059 27.9067 45.9259 28.76 45.8193 29.6133L51.4459 34.0133C51.9526 34.4133 52.0859 35.1333 51.7659 35.72L46.4326 44.9467C46.1926 45.3733 45.7393 45.6133 45.2859 45.6133C45.1259 45.6133 44.9659 45.5867 44.8059 45.5333L38.1659 42.8667C36.7793 43.9067 35.2859 44.8133 33.6593 45.48L32.6459 52.5467C32.5659 53.1867 32.0059 53.6667 31.3393 53.6667H20.6726C20.0059 53.6667 19.4459 53.1867 19.3659 52.5467L18.3526 45.48C16.7259 44.8133 15.2326 43.9333 13.8459 42.8667L7.20592 45.5333C7.07259 45.5867 6.91259 45.6133 6.75259 45.6133C6.27259 45.6133 5.81925 45.3733 5.57925 44.9467L0.245919 35.72C-0.0740806 35.1333 0.0592528 34.4133 0.565919 34.0133L6.19259 29.6133C6.08592 28.76 6.00592 27.88 6.00592 27C6.00592 26.12 6.08592 25.24 6.19259 24.3867L0.565919 19.9867C0.0592528 19.5867 -0.100747 18.8667 0.245919 18.28L5.57925 9.05333C5.81925 8.62666 6.27259 8.38666 6.72592 8.38666C6.88592 8.38666 7.04592 8.41333 7.20592 8.46666L13.8459 11.1333C15.2326 10.0933 16.7259 9.18666 18.3526 8.51999L19.3659 1.45333C19.4459 0.813328 20.0059 0.333328 20.6726 0.333328H31.3393C32.0059 0.333328 32.5659 0.813328 32.6459 1.45333L33.6593 8.51999C35.2859 9.18666 36.7793 10.0667 38.1659 11.1333L44.8059 8.46666C44.9393 8.41333 45.0993 8.38666 45.2593 8.38666C45.7393 8.38666 46.1926 8.62666 46.4326 9.05333L51.7659 18.28C52.0859 18.8667 51.9526 19.5867 51.4459 19.9867L45.8193 24.3867C45.9259 25.24 46.0059 26.0933 46.0059 27ZM40.6726 27C40.6726 26.44 40.6459 25.88 40.5393 25.0533L40.1659 22.04L42.5393 20.1733L45.3926 17.9067L43.5259 14.68L40.1393 16.04L37.3126 17.1867L34.8859 15.32C33.8193 14.52 32.7526 13.9067 31.6059 13.4267L28.7793 12.28L28.3526 9.26666L27.8459 5.66666H24.1393L23.6059 9.26666L23.1793 12.28L20.3526 13.4267C19.2593 13.88 18.1659 14.52 17.0193 15.3733L14.6193 17.1867L11.8459 16.0667L8.45925 14.7067L6.59259 17.9333L9.47259 20.1733L11.8459 22.04L11.4726 25.0533C11.3926 25.8533 11.3393 26.4667 11.3393 27C11.3393 27.5333 11.3926 28.1467 11.4726 28.9733L11.8459 31.9867L9.47259 33.8533L6.59259 36.0933L8.45925 39.32L11.8459 37.96L14.6726 36.8133L17.0993 38.68C18.1659 39.48 19.2326 40.0933 20.3793 40.5733L23.2059 41.72L23.6326 44.7333L24.1393 48.3333H27.8726L28.4059 44.7333L28.8326 41.72L31.6593 40.5733C32.7526 40.12 33.8459 39.48 34.9926 38.6267L37.3926 36.8133L40.1659 37.9333L43.5526 39.2933L45.4193 36.0667L42.5393 33.8267L40.1659 31.96L40.5393 28.9467C40.6193 28.1467 40.6726 27.56 40.6726 27ZM26.0059 16.3333C20.1126 16.3333 15.3393 21.1067 15.3393 27C15.3393 32.8933 20.1126 37.6667 26.0059 37.6667C31.8993 37.6667 36.6726 32.8933 36.6726 27C36.6726 21.1067 31.8993 16.3333 26.0059 16.3333ZM20.6726 27C20.6726 29.9333 23.0726 32.3333 26.0059 32.3333C28.9393 32.3333 31.3393 29.9333 31.3393 27C31.3393 24.0667 28.9393 21.6667 26.0059 21.6667C23.0726 21.6667 20.6726 24.0667 20.6726 27Z" fill="white"/>
</svg>
